<?xml version="1.0" encoding="utf-8"?>
<!-- Generator: Adobe Illustrator 19.0.1, SVG Export Plug-In . SVG Version: 6.00 Build 0)  -->
<svg version="1.1" id="Layer_1" xmlns="http://www.w3.org/2000/svg" xmlns:xlink="http://www.w3.org/1999/xlink" x="0px" y="0px"
	 viewBox="0 0 792 612" style="enable-background:new 0 0 792 612;" xml:space="preserve">
<style type="text/css">
	.st0{fill-rule:evenodd;clip-rule:evenodd;fill:#FFFFFF;}
	.st1{fill:#FFFFFF;}
	.st2{fill:#221F1F;}
	.st3{fill:#00A651;stroke:#F7941E;stroke-width:4;stroke-miterlimit:10;}
	.st4{font-family:'SnellRoundhand';}
	.st5{font-size:99.0916px;}
</style>
<symbol  id="Regal_Vector_Pack_02" viewBox="-95.2 -31.9 190.4 63.7">
	<path class="st0" d="M93.2-29.9c-0.6,0.4-1.3,0.7-1.9,1.1c-13.7,7.7-28.2,13.5-43,17.5c-0.3,0.1-0.6,0.2-0.9,0.2c0,0.3,0,0.6,0,0.8
		c0,7.6,0,15.2,0,22.7c0,0.3,0,0.6,0,0.8c0.3-0.1,0.6-0.2,0.9-0.2c14.9-4,29.4-9.8,43.1-17.5c0.6-0.4,1.3-0.7,1.9-1.1
		c-0.4-0.2-0.9-0.4-1.3-0.7c-3.4-1.7-6.8-3.5-10.2-5.5c3.4-5.2,6.8-10.6,10.1-16C92.3-28.4,92.7-29.2,93.2-29.9L93.2-29.9z"/>
	<path class="st0" d="M-46.9-11c-0.3-0.1-0.6-0.1-0.9-0.2c-15-4-29.6-9.8-43.5-17.6c-0.6-0.4-1.3-0.7-1.9-1.1
		c0.4,0.7,0.9,1.5,1.3,2.2c3.3,5.4,6.7,10.8,10.1,16c-3.5,1.9-6.9,3.8-10.2,5.5c-0.5,0.2-0.9,0.5-1.3,0.7c0.6,0.4,1.3,0.7,1.9,1.1
		c13.9,7.8,28.6,13.7,43.6,17.7c0.3,0.1,0.6,0.1,0.9,0.2c0-0.3,0-0.6,0-0.8c0-7.6,0-15.2,0-22.7C-46.9-10.5-46.9-10.7-46.9-11
		L-46.9-11z"/>
	<path class="st1" d="M-62.8-4.6c5.2,1.8,10.4,3.5,15.7,4.8c0-3.5,0-7,0-10.4C-52.4-8.1-57.6-6.2-62.8-4.6z"/>
	<path class="st2" d="M-47.8,12.3c0-7.6,0-15.2,0-22.7c-15-4-29.6-9.8-43.5-17.6c3.5,5.7,7.1,11.4,10.7,16.9
		c-3.7,2.1-7.3,4-10.8,5.8C-77.5,2.5-62.8,8.4-47.8,12.3 M-46.1,14.5c-0.6-0.1-1.1-0.3-1.7-0.4c-15-4-29.7-9.9-43.6-17.6
		c-1.3-0.7-2.5-1.4-3.8-2.2c0.9-0.4,1.8-0.9,2.7-1.3c3.2-1.6,6.4-3.3,9.7-5.1c-3.2-5-6.4-10-9.5-15.2c-0.9-1.5-1.8-3-2.7-4.4
		c1.3,0.7,2.5,1.5,3.8,2.2c13.9,7.8,28.5,13.6,43.5,17.6c0.6,0.2,1.1,0.3,1.7,0.4c0,0.6,0,1.1,0,1.7c0,7.6,0,15.2,0,22.7
		C-46.1,13.4-46.1,13.9-46.1,14.5L-46.1,14.5z"/>
	<path class="st1" d="M63.2-4.7C58-2.8,52.7-1.2,47.4,0.2c0-3.5,0-7,0-10.4C52.7-8.2,58-6.3,63.2-4.7z"/>
	<path class="st2" d="M91.4-5.3c-3.6-1.8-7.2-3.8-10.8-5.8c3.6-5.5,7.2-11.1,10.7-16.9c-13.7,7.7-28.2,13.5-43,17.5
		c0,7.6,0,15.2,0,22.7C63.1,8.2,77.6,2.4,91.4-5.3 M95.2-5.8c-1.3,0.7-2.5,1.5-3.8,2.2C77.6,4.1,63.1,9.9,48.3,13.9
		c-0.6,0.2-1.1,0.3-1.7,0.4c0-0.6,0-1.1,0-1.7c0-7.6,0-15.2,0-22.7c0-0.6,0-1.1,0-1.7c0.6-0.1,1.1-0.3,1.7-0.4
		c14.8-4,29.3-9.8,43-17.5c1.3-0.7,2.5-1.4,3.8-2.2c-0.9,1.5-1.8,3-2.7,4.4c-3.1,5.2-6.3,10.2-9.5,15.2c3.3,1.8,6.5,3.5,9.7,5.1
		C93.4-6.7,94.3-6.2,95.2-5.8L95.2-5.8z"/>
	<g>
		<path class="st0" d="M63.6-4.6c-0.3,0.1-0.6,0.2-0.8,0.3C22.4,10.1-21.9,10.2-62.3-4.1c-0.3-0.1-0.6-0.2-0.8-0.3
			c0,0.3,0,0.6,0,0.8c0,7.6,0,15.2,0,22.7c0,0.3,0,0.6,0,0.8c0.3,0.1,0.6,0.2,0.8,0.3c40.5,14.3,84.7,14.2,125.1-0.2
			c0.3-0.1,0.6-0.2,0.8-0.3c0-0.3,0-0.6,0-0.8c0-7.6,0-15.2,0-22.7C63.6-4,63.6-4.3,63.6-4.6L63.6-4.6z"/>
		<path class="st2" d="M62.8,19.3c0-7.6,0-15.2,0-22.7C22.4,11-21.9,11-62.3-3.3c0,7.6,0,15.2,0,22.7
			C-21.9,33.8,22.4,33.7,62.8,19.3 M64.5,20.4c-0.6,0.2-1.1,0.4-1.7,0.6C22.4,35.4-21.9,35.5-62.3,21.2c-0.6-0.2-1.1-0.4-1.7-0.6
			c0-0.6,0-1.1,0-1.7c0-7.6,0-15.2,0-22.7c0-0.6,0-1.1,0-1.7c0.6,0.2,1.1,0.4,1.7,0.6C-21.9,9.3,22.4,9.3,62.8-5.1
			c0.6-0.2,1.1-0.4,1.7-0.6c0,0.6,0,1.1,0,1.7c0,7.6,0,15.2,0,22.7C64.5,19.3,64.5,19.8,64.5,20.4L64.5,20.4z"/>
	</g>
	<path class="st2" d="M-64-5.6c0.3,0.6,0.6,1.2,0.9,1.7c5.4-1.7,10.8-3.6,16.3-5.8c-0.3-0.6-0.6-1.1-0.9-1.7
		C-53.2-9.2-58.6-7.3-64-5.6L-64-5.6z"/>
	<path class="st2" d="M64.4-5.8c-0.3,0.6-0.6,1.2-0.9,1.7c-5.4-1.7-10.8-3.6-16.3-5.8c0.3-0.6,0.6-1.1,0.9-1.7
		C53.6-9.3,59-7.4,64.4-5.8L64.4-5.8z"/>
</symbol>
<use xlink:href="#Regal_Vector_Pack_02"  width="190.4" height="63.7" id="XMLID_1_" x="-95.2" y="-31.9" transform="matrix(2.8605 0 0 -2.0644 394.5895 117.3218)" style="overflow:visible;"/>
<use xlink:href="#Regal_Vector_Pack_02"  width="190.4" height="63.7" x="-95.2" y="-31.9" transform="matrix(-2.8186 0 0 2.0644 395.2713 472.1196)" style="overflow:visible;"/>
<polygon class="st3" points="771.4,297.8 713,274 739.6,209.7 683.6,240.3 663,173.9 663,165.7 520.3,165.7 558.1,91.1 453,165.5 
	456.4,18.1 396.1,146.2 338.2,16.5 338.8,163.9 235.2,86.7 273.2,165.7 126.6,165.7 126.6,173 126.3,172.2 105.6,238.9 49.6,208.5 
	76.2,272.4 17.8,296.1 76.2,319.9 49.6,383.8 105.6,353.4 126.3,420.1 126.6,419.3 126.6,428 256.8,428 231.5,477.8 301.8,428 
	336,428 333.2,550.8 391,428 395.9,428 451.4,552.4 450.9,428 481.7,428 554.5,482.2 528.3,428 663,428 663,421.6 683.6,355.3 
	739.6,385.8 713,321.6 "/>
<text transform="matrix(0.8257 0 0 1 103.6895 316.0459)" class="st1 st4 st5">Intimate Moments</text>
</svg>
